<mxfile host="65bd71144e">
    <diagram name="Page-1" id="IkOOb1YIsuJRBEpDu00r">
        <mxGraphModel dx="613" dy="276" grid="1" gridSize="10" guides="1" tooltips="1" connect="1" arrows="1" fold="1" page="1" pageScale="1" pageWidth="827" pageHeight="1169" math="0" shadow="0">
            <root>
                <mxCell id="0"/>
                <mxCell id="1" parent="0"/>
                <mxCell id="22" value="" style="shape=umlLifeline;perimeter=lifelinePerimeter;whiteSpace=wrap;html=1;container=1;dropTarget=0;collapsible=0;recursiveResize=0;outlineConnect=0;portConstraint=eastwest;newEdgeStyle={&quot;curved&quot;:0,&quot;rounded&quot;:0};participant=umlActor;" vertex="1" parent="1">
                    <mxGeometry x="50" y="40" width="20" height="1210" as="geometry"/>
                </mxCell>
                <mxCell id="23" value="User" style="text;html=1;align=center;verticalAlign=middle;resizable=0;points=[];autosize=1;strokeColor=none;fillColor=none;" vertex="1" parent="1">
                    <mxGeometry x="35" y="10" width="50" height="30" as="geometry"/>
                </mxCell>
                <mxCell id="24" value="&lt;u&gt;:FXController&lt;/u&gt;" style="shape=umlLifeline;perimeter=lifelinePerimeter;whiteSpace=wrap;html=1;container=1;dropTarget=0;collapsible=0;recursiveResize=0;outlineConnect=0;portConstraint=eastwest;newEdgeStyle={&quot;curved&quot;:0,&quot;rounded&quot;:0};" vertex="1" parent="1">
                    <mxGeometry x="200" y="40" width="100" height="2040" as="geometry"/>
                </mxCell>
                <mxCell id="26" value="" style="html=1;points=[[0,0,0,0,5],[0,1,0,0,-5],[1,0,0,0,5],[1,1,0,0,-5]];perimeter=orthogonalPerimeter;outlineConnect=0;targetShapes=umlLifeline;portConstraint=eastwest;newEdgeStyle={&quot;curved&quot;:0,&quot;rounded&quot;:0};" vertex="1" parent="24">
                    <mxGeometry x="45" y="90" width="10" height="1630" as="geometry"/>
                </mxCell>
                <mxCell id="30" value="" style="html=1;points=[[0,0,0,0,5],[0,1,0,0,-5],[1,0,0,0,5],[1,1,0,0,-5]];perimeter=orthogonalPerimeter;outlineConnect=0;targetShapes=umlLifeline;portConstraint=eastwest;newEdgeStyle={&quot;curved&quot;:0,&quot;rounded&quot;:0};" vertex="1" parent="24">
                    <mxGeometry x="50" y="120" width="10" height="1580" as="geometry"/>
                </mxCell>
                <mxCell id="31" value="generateMaze()" style="html=1;align=left;spacingLeft=2;endArrow=block;rounded=0;edgeStyle=orthogonalEdgeStyle;curved=0;rounded=0;" edge="1" target="30" parent="24">
                    <mxGeometry relative="1" as="geometry">
                        <mxPoint x="55" y="100" as="sourcePoint"/>
                        <Array as="points">
                            <mxPoint x="85" y="130"/>
                        </Array>
                    </mxGeometry>
                </mxCell>
                <mxCell id="25" value=":&lt;u&gt;MazeController&lt;/u&gt;" style="shape=umlLifeline;perimeter=lifelinePerimeter;whiteSpace=wrap;html=1;container=1;dropTarget=0;collapsible=0;recursiveResize=0;outlineConnect=0;portConstraint=eastwest;newEdgeStyle={&quot;curved&quot;:0,&quot;rounded&quot;:0};" vertex="1" parent="1">
                    <mxGeometry x="600" y="40" width="100" height="2190" as="geometry"/>
                </mxCell>
                <mxCell id="32" value="" style="html=1;points=[[0,0,0,0,5],[0,1,0,0,-5],[1,0,0,0,5],[1,1,0,0,-5]];perimeter=orthogonalPerimeter;outlineConnect=0;targetShapes=umlLifeline;portConstraint=eastwest;newEdgeStyle={&quot;curved&quot;:0,&quot;rounded&quot;:0};" vertex="1" parent="25">
                    <mxGeometry x="44" y="160" width="10" height="1510" as="geometry"/>
                </mxCell>
                <mxCell id="27" value="onStartGenerationClick()" style="html=1;verticalAlign=bottom;endArrow=block;curved=0;rounded=0;entryX=0;entryY=0;entryDx=0;entryDy=5;" edge="1" target="26" parent="1" source="22">
                    <mxGeometry relative="1" as="geometry">
                        <mxPoint x="175" y="135" as="sourcePoint"/>
                    </mxGeometry>
                </mxCell>
                <mxCell id="33" value="createMaze(GenMethod, Type, rows, columns, timeStep, seed)" style="html=1;verticalAlign=bottom;endArrow=block;curved=0;rounded=0;entryX=0;entryY=0;entryDx=0;entryDy=5;" edge="1" target="32" parent="1" source="30">
                    <mxGeometry relative="1" as="geometry">
                        <mxPoint x="374" y="205" as="sourcePoint"/>
                    </mxGeometry>
                </mxCell>
                <mxCell id="34" value="" style="html=1;verticalAlign=bottom;endArrow=open;dashed=1;endSize=8;curved=0;rounded=0;exitX=0;exitY=1;exitDx=0;exitDy=-5;" edge="1" source="32" parent="1" target="30">
                    <mxGeometry relative="1" as="geometry">
                        <mxPoint x="374" y="275" as="targetPoint"/>
                    </mxGeometry>
                </mxCell>
                <mxCell id="35" value="&lt;u&gt;:Generator&lt;/u&gt;" style="shape=umlLifeline;perimeter=lifelinePerimeter;whiteSpace=wrap;html=1;container=1;dropTarget=0;collapsible=0;recursiveResize=0;outlineConnect=0;portConstraint=eastwest;newEdgeStyle={&quot;curved&quot;:0,&quot;rounded&quot;:0};" vertex="1" parent="1">
                    <mxGeometry x="830" y="230" width="105" height="2160" as="geometry"/>
                </mxCell>
                <mxCell id="39" value="" style="html=1;points=[[0,0,0,0,5],[0,1,0,0,-5],[1,0,0,0,5],[1,1,0,0,-5]];perimeter=orthogonalPerimeter;outlineConnect=0;targetShapes=umlLifeline;portConstraint=eastwest;newEdgeStyle={&quot;curved&quot;:0,&quot;rounded&quot;:0};" vertex="1" parent="35">
                    <mxGeometry x="45" y="70" width="10" height="1410" as="geometry"/>
                </mxCell>
                <mxCell id="40" value="makeMaze()" style="html=1;verticalAlign=bottom;endArrow=block;curved=0;rounded=0;entryX=0;entryY=0;entryDx=0;entryDy=5;" edge="1" target="39" parent="35">
                    <mxGeometry relative="1" as="geometry">
                        <mxPoint x="-176" y="75" as="sourcePoint"/>
                    </mxGeometry>
                </mxCell>
                <mxCell id="68" value="" style="html=1;points=[[0,0,0,0,5],[0,1,0,0,-5],[1,0,0,0,5],[1,1,0,0,-5]];perimeter=orthogonalPerimeter;outlineConnect=0;targetShapes=umlLifeline;portConstraint=eastwest;newEdgeStyle={&quot;curved&quot;:0,&quot;rounded&quot;:0};" vertex="1" parent="35">
                    <mxGeometry x="50" y="310" width="10" height="130" as="geometry"/>
                </mxCell>
                <mxCell id="69" value="makeGridGraph(baseGraph)" style="html=1;align=left;spacingLeft=2;endArrow=block;rounded=0;edgeStyle=orthogonalEdgeStyle;curved=0;rounded=0;" edge="1" target="68" parent="35">
                    <mxGeometry relative="1" as="geometry">
                        <mxPoint x="55" y="290" as="sourcePoint"/>
                        <Array as="points">
                            <mxPoint x="85" y="320"/>
                        </Array>
                    </mxGeometry>
                </mxCell>
                <mxCell id="92" value="" style="html=1;points=[[0,0,0,0,5],[0,1,0,0,-5],[1,0,0,0,5],[1,1,0,0,-5]];perimeter=orthogonalPerimeter;outlineConnect=0;targetShapes=umlLifeline;portConstraint=eastwest;newEdgeStyle={&quot;curved&quot;:0,&quot;rounded&quot;:0};" vertex="1" parent="35">
                    <mxGeometry x="50" y="710" width="10" height="740" as="geometry"/>
                </mxCell>
                <mxCell id="93" value="kruskal(baseGraph, maze)" style="html=1;align=left;spacingLeft=2;endArrow=block;rounded=0;edgeStyle=orthogonalEdgeStyle;curved=0;rounded=0;" edge="1" target="92" parent="35">
                    <mxGeometry relative="1" as="geometry">
                        <mxPoint x="55" y="690" as="sourcePoint"/>
                        <Array as="points">
                            <mxPoint x="85" y="720"/>
                        </Array>
                    </mxGeometry>
                </mxCell>
                <mxCell id="36" value="&amp;lt;&amp;lt;create&amp;gt;&amp;gt;" style="html=1;verticalAlign=bottom;endArrow=block;curved=0;rounded=0;" edge="1" parent="1" source="32">
                    <mxGeometry width="80" relative="1" as="geometry">
                        <mxPoint x="730" y="250" as="sourcePoint"/>
                        <mxPoint x="830" y="250" as="targetPoint"/>
                    </mxGeometry>
                </mxCell>
                <mxCell id="37" value="params: rows, columns, genMethod,seed&amp;nbsp;" style="shape=note2;boundedLbl=1;whiteSpace=wrap;html=1;size=25;verticalAlign=top;align=center;" vertex="1" parent="1">
                    <mxGeometry x="760" y="70" width="150" height="70" as="geometry"/>
                </mxCell>
                <mxCell id="38" value="" style="endArrow=none;dashed=1;html=1;" edge="1" parent="1" source="37">
                    <mxGeometry width="50" height="50" relative="1" as="geometry">
                        <mxPoint x="980" y="150" as="sourcePoint"/>
                        <mxPoint x="740" y="250" as="targetPoint"/>
                    </mxGeometry>
                </mxCell>
                <mxCell id="42" value="alt" style="shape=umlFrame;whiteSpace=wrap;html=1;pointerEvents=0;" vertex="1" parent="1">
                    <mxGeometry x="720" y="680" width="930" height="1140" as="geometry"/>
                </mxCell>
                <mxCell id="41" value="return" style="html=1;verticalAlign=bottom;endArrow=open;dashed=1;endSize=8;curved=0;rounded=0;exitX=0;exitY=1;exitDx=0;exitDy=-5;" edge="1" source="39" parent="1" target="32">
                    <mxGeometry relative="1" as="geometry">
                        <mxPoint x="805" y="375" as="targetPoint"/>
                    </mxGeometry>
                </mxCell>
                <mxCell id="43" value="baseGraph&lt;u&gt;:Maze&lt;/u&gt;" style="shape=umlLifeline;perimeter=lifelinePerimeter;whiteSpace=wrap;html=1;container=1;dropTarget=0;collapsible=0;recursiveResize=0;outlineConnect=0;portConstraint=eastwest;newEdgeStyle={&quot;curved&quot;:0,&quot;rounded&quot;:0};" vertex="1" parent="1">
                    <mxGeometry x="1040" y="360" width="100" height="1880" as="geometry"/>
                </mxCell>
                <mxCell id="87" value="" style="html=1;points=[[0,0,0,0,5],[0,1,0,0,-5],[1,0,0,0,5],[1,1,0,0,-5]];perimeter=orthogonalPerimeter;outlineConnect=0;targetShapes=umlLifeline;portConstraint=eastwest;newEdgeStyle={&quot;curved&quot;:0,&quot;rounded&quot;:0};" vertex="1" parent="43">
                    <mxGeometry x="45" y="380" width="10" height="50" as="geometry"/>
                </mxCell>
                <mxCell id="44" value="v:&lt;u&gt;Vertex&lt;/u&gt;" style="shape=umlLifeline;perimeter=lifelinePerimeter;whiteSpace=wrap;html=1;container=1;dropTarget=0;collapsible=0;recursiveResize=0;outlineConnect=0;portConstraint=eastwest;newEdgeStyle={&quot;curved&quot;:0,&quot;rounded&quot;:0};" vertex="1" parent="1">
                    <mxGeometry x="1270" y="360" width="100" height="40" as="geometry"/>
                </mxCell>
                <mxCell id="45" value="loop" style="shape=umlFrame;whiteSpace=wrap;html=1;pointerEvents=0;" vertex="1" parent="1">
                    <mxGeometry x="1030" y="260" width="350" height="150" as="geometry"/>
                </mxCell>
                <mxCell id="47" value="[i&amp;lt;rows*columns]" style="text;html=1;align=center;verticalAlign=middle;resizable=0;points=[];autosize=1;strokeColor=none;fillColor=none;" vertex="1" parent="1">
                    <mxGeometry x="1270" y="260" width="110" height="30" as="geometry"/>
                </mxCell>
                <mxCell id="48" value="&amp;lt;&amp;lt;create&amp;gt;&amp;gt;" style="html=1;verticalAlign=bottom;labelBackgroundColor=none;endArrow=open;endFill=0;" edge="1" parent="1" source="39">
                    <mxGeometry width="160" relative="1" as="geometry">
                        <mxPoint x="910" y="330" as="sourcePoint"/>
                        <mxPoint x="1040" y="380" as="targetPoint"/>
                    </mxGeometry>
                </mxCell>
                <mxCell id="51" value="&amp;lt;&amp;lt;create&amp;gt;&amp;gt;" style="html=1;verticalAlign=bottom;labelBackgroundColor=none;endArrow=open;endFill=0;entryX=0;entryY=0.5;entryDx=0;entryDy=0;entryPerimeter=0;" edge="1" parent="1" target="44">
                    <mxGeometry width="160" relative="1" as="geometry">
                        <mxPoint x="1140.2307692307693" y="379.62" as="sourcePoint"/>
                        <mxPoint x="1260" y="380" as="targetPoint"/>
                    </mxGeometry>
                </mxCell>
                <mxCell id="52" value="params: rows, columns" style="shape=note2;boundedLbl=1;whiteSpace=wrap;html=1;size=25;verticalAlign=top;align=center;" vertex="1" parent="1">
                    <mxGeometry x="930" y="150" width="150" height="60" as="geometry"/>
                </mxCell>
                <mxCell id="53" value="" style="endArrow=none;dashed=1;html=1;" edge="1" parent="1" source="52">
                    <mxGeometry width="50" height="50" relative="1" as="geometry">
                        <mxPoint x="822" y="150" as="sourcePoint"/>
                        <mxPoint x="970" y="380" as="targetPoint"/>
                    </mxGeometry>
                </mxCell>
                <mxCell id="54" value="" style="endArrow=none;dashed=1;html=1;" edge="1" parent="1" source="55">
                    <mxGeometry width="50" height="50" relative="1" as="geometry">
                        <mxPoint x="1240" y="210" as="sourcePoint"/>
                        <mxPoint x="1210" y="380" as="targetPoint"/>
                    </mxGeometry>
                </mxCell>
                <mxCell id="55" value="params: x, y, id = i" style="shape=note2;boundedLbl=1;whiteSpace=wrap;html=1;size=25;verticalAlign=top;align=center;" vertex="1" parent="1">
                    <mxGeometry x="1270" y="120" width="150" height="60" as="geometry"/>
                </mxCell>
                <mxCell id="56" value=":&lt;u&gt;Vertex&lt;/u&gt;" style="shape=umlLifeline;perimeter=lifelinePerimeter;whiteSpace=wrap;html=1;container=1;dropTarget=0;collapsible=0;recursiveResize=0;outlineConnect=0;portConstraint=eastwest;newEdgeStyle={&quot;curved&quot;:0,&quot;rounded&quot;:0};" vertex="1" parent="1">
                    <mxGeometry x="1500" y="485.5" width="100" height="40" as="geometry"/>
                </mxCell>
                <mxCell id="57" value="loop" style="shape=umlFrame;whiteSpace=wrap;html=1;pointerEvents=0;" vertex="1" parent="1">
                    <mxGeometry x="1210" y="420" width="400" height="115.5" as="geometry"/>
                </mxCell>
                <mxCell id="58" value="[i&amp;lt;rows*columns]" style="text;html=1;align=center;verticalAlign=middle;resizable=0;points=[];autosize=1;strokeColor=none;fillColor=none;" vertex="1" parent="1">
                    <mxGeometry x="1500" y="415.5" width="110" height="30" as="geometry"/>
                </mxCell>
                <mxCell id="59" value="&amp;lt;&amp;lt;create&amp;gt;&amp;gt;" style="html=1;verticalAlign=bottom;labelBackgroundColor=none;endArrow=open;endFill=0;entryX=0;entryY=0.5;entryDx=0;entryDy=0;entryPerimeter=0;exitX=1;exitY=0.03;exitDx=0;exitDy=0;exitPerimeter=0;" edge="1" parent="1" target="56" source="61">
                    <mxGeometry width="160" relative="1" as="geometry">
                        <mxPoint x="1370.2307692307693" y="479.62" as="sourcePoint"/>
                        <mxPoint x="1490" y="480" as="targetPoint"/>
                    </mxGeometry>
                </mxCell>
                <mxCell id="61" value="maze&lt;u&gt;:Maze&lt;/u&gt;" style="shape=umlLifeline;perimeter=lifelinePerimeter;whiteSpace=wrap;html=1;container=1;dropTarget=0;collapsible=0;recursiveResize=0;outlineConnect=0;portConstraint=eastwest;newEdgeStyle={&quot;curved&quot;:0,&quot;rounded&quot;:0};" vertex="1" parent="1">
                    <mxGeometry x="1270" y="484.5" width="100" height="1825.5" as="geometry"/>
                </mxCell>
                <mxCell id="62" value="" style="endArrow=none;dashed=1;html=1;" edge="1" parent="1" source="55">
                    <mxGeometry width="50" height="50" relative="1" as="geometry">
                        <mxPoint x="1435.4999999999995" y="235.5" as="sourcePoint"/>
                        <mxPoint x="1440" y="505.5" as="targetPoint"/>
                    </mxGeometry>
                </mxCell>
                <mxCell id="63" value="&amp;lt;&amp;lt;create&amp;gt;&amp;gt;" style="html=1;verticalAlign=bottom;labelBackgroundColor=none;endArrow=open;endFill=0;" edge="1" parent="1">
                    <mxGeometry width="160" relative="1" as="geometry">
                        <mxPoint x="884.9999999999998" y="510" as="sourcePoint"/>
                        <mxPoint x="1270" y="510" as="targetPoint"/>
                    </mxGeometry>
                </mxCell>
                <mxCell id="64" value="" style="endArrow=none;dashed=1;html=1;" edge="1" parent="1" source="52">
                    <mxGeometry width="50" height="50" relative="1" as="geometry">
                        <mxPoint x="1010" y="220" as="sourcePoint"/>
                        <mxPoint x="1020" y="510" as="targetPoint"/>
                    </mxGeometry>
                </mxCell>
                <mxCell id="65" value="" style="html=1;points=[[0,0,0,0,5],[0,1,0,0,-5],[1,0,0,0,5],[1,1,0,0,-5]];perimeter=orthogonalPerimeter;outlineConnect=0;targetShapes=umlLifeline;portConstraint=eastwest;newEdgeStyle={&quot;curved&quot;:0,&quot;rounded&quot;:0};" vertex="1" parent="1">
                    <mxGeometry x="880" y="710" width="10" height="200" as="geometry"/>
                </mxCell>
                <mxCell id="66" value="addRandomWeight(baseGraph)" style="html=1;align=left;spacingLeft=2;endArrow=block;rounded=0;edgeStyle=orthogonalEdgeStyle;curved=0;rounded=0;" edge="1" target="65" parent="1">
                    <mxGeometry relative="1" as="geometry">
                        <mxPoint x="885" y="690" as="sourcePoint"/>
                        <Array as="points">
                            <mxPoint x="915" y="720"/>
                        </Array>
                    </mxGeometry>
                </mxCell>
                <mxCell id="67" value="[genMethod == Kruskal]" style="text;html=1;align=center;verticalAlign=middle;resizable=0;points=[];autosize=1;strokeColor=none;fillColor=none;" vertex="1" parent="1">
                    <mxGeometry x="720" y="710" width="150" height="30" as="geometry"/>
                </mxCell>
                <mxCell id="70" value="e:&lt;u&gt;Edge&lt;/u&gt;" style="shape=umlLifeline;perimeter=lifelinePerimeter;whiteSpace=wrap;html=1;container=1;dropTarget=0;collapsible=0;recursiveResize=0;outlineConnect=0;portConstraint=eastwest;newEdgeStyle={&quot;curved&quot;:0,&quot;rounded&quot;:0};" vertex="1" parent="1">
                    <mxGeometry x="1141" y="560" width="100" height="40" as="geometry"/>
                </mxCell>
                <mxCell id="71" value="loop" style="shape=umlFrame;whiteSpace=wrap;html=1;pointerEvents=0;" vertex="1" parent="1">
                    <mxGeometry x="720" y="560" width="550" height="100" as="geometry"/>
                </mxCell>
                <mxCell id="72" value="" style="html=1;points=[[0,0,0,0,5],[0,1,0,0,-5],[1,0,0,0,5],[1,1,0,0,-5]];perimeter=orthogonalPerimeter;outlineConnect=0;targetShapes=umlLifeline;portConstraint=eastwest;newEdgeStyle={&quot;curved&quot;:0,&quot;rounded&quot;:0};" vertex="1" parent="1">
                    <mxGeometry x="1085" y="600" width="10" height="50" as="geometry"/>
                </mxCell>
                <mxCell id="73" value="addEdge(e)" style="html=1;verticalAlign=bottom;endArrow=block;curved=0;rounded=0;entryX=0;entryY=0;entryDx=0;entryDy=5;" edge="1" target="72" parent="1" source="68">
                    <mxGeometry relative="1" as="geometry">
                        <mxPoint x="1015" y="575" as="sourcePoint"/>
                    </mxGeometry>
                </mxCell>
                <mxCell id="74" value="return" style="html=1;verticalAlign=bottom;endArrow=open;dashed=1;endSize=8;curved=0;rounded=0;exitX=0;exitY=1;exitDx=0;exitDy=-5;" edge="1" source="72" parent="1" target="68">
                    <mxGeometry relative="1" as="geometry">
                        <mxPoint x="1015" y="645" as="targetPoint"/>
                    </mxGeometry>
                </mxCell>
                <mxCell id="75" value="&amp;lt;&amp;lt;create&amp;gt;&amp;gt;" style="html=1;verticalAlign=bottom;labelBackgroundColor=none;endArrow=open;endFill=0;" edge="1" parent="1" source="68">
                    <mxGeometry width="160" relative="1" as="geometry">
                        <mxPoint x="895" y="488" as="sourcePoint"/>
                        <mxPoint x="1140" y="580" as="targetPoint"/>
                        <Array as="points">
                            <mxPoint x="1110" y="580"/>
                        </Array>
                    </mxGeometry>
                </mxCell>
                <mxCell id="79" value="" style="endArrow=classic;html=1;" edge="1" parent="1">
                    <mxGeometry width="50" height="50" relative="1" as="geometry">
                        <mxPoint x="1070" y="360" as="sourcePoint"/>
                        <mxPoint x="1120" y="360" as="targetPoint"/>
                        <Array as="points">
                            <mxPoint x="1070" y="320"/>
                            <mxPoint x="1120" y="320"/>
                        </Array>
                    </mxGeometry>
                </mxCell>
                <mxCell id="80" value="addVertex(v)" style="text;html=1;align=center;verticalAlign=middle;resizable=0;points=[];autosize=1;strokeColor=none;fillColor=none;" vertex="1" parent="1">
                    <mxGeometry x="1051" y="290" width="90" height="30" as="geometry"/>
                </mxCell>
                <mxCell id="81" value="" style="endArrow=classic;html=1;" edge="1" parent="1">
                    <mxGeometry width="50" height="50" relative="1" as="geometry">
                        <mxPoint x="1299" y="485.5" as="sourcePoint"/>
                        <mxPoint x="1349" y="485.5" as="targetPoint"/>
                        <Array as="points">
                            <mxPoint x="1299" y="445.5"/>
                            <mxPoint x="1349" y="445.5"/>
                        </Array>
                    </mxGeometry>
                </mxCell>
                <mxCell id="82" value="addVertex(v)" style="text;html=1;align=center;verticalAlign=middle;resizable=0;points=[];autosize=1;strokeColor=none;fillColor=none;" vertex="1" parent="1">
                    <mxGeometry x="1280" y="415.5" width="90" height="30" as="geometry"/>
                </mxCell>
                <mxCell id="83" value="e:&lt;u&gt;Edge&lt;/u&gt;" style="shape=umlLifeline;perimeter=lifelinePerimeter;whiteSpace=wrap;html=1;container=1;dropTarget=0;collapsible=0;recursiveResize=0;outlineConnect=0;portConstraint=eastwest;newEdgeStyle={&quot;curved&quot;:0,&quot;rounded&quot;:0};" vertex="1" parent="1">
                    <mxGeometry x="1160" y="810" width="100" height="90" as="geometry"/>
                </mxCell>
                <mxCell id="84" value="" style="html=1;points=[[0,0,0,0,5],[0,1,0,0,-5],[1,0,0,0,5],[1,1,0,0,-5]];perimeter=orthogonalPerimeter;outlineConnect=0;targetShapes=umlLifeline;portConstraint=eastwest;newEdgeStyle={&quot;curved&quot;:0,&quot;rounded&quot;:0};" vertex="1" parent="83">
                    <mxGeometry x="45" y="50" width="10" height="30" as="geometry"/>
                </mxCell>
                <mxCell id="86" value="" style="html=1;verticalAlign=bottom;endArrow=open;dashed=1;endSize=8;curved=0;rounded=0;exitX=0;exitY=1;exitDx=0;exitDy=-5;" edge="1" source="84" parent="1" target="65">
                    <mxGeometry relative="1" as="geometry">
                        <mxPoint x="1135" y="845" as="targetPoint"/>
                    </mxGeometry>
                </mxCell>
                <mxCell id="85" value="setWeight(RandomInteger)" style="html=1;verticalAlign=bottom;endArrow=block;curved=0;rounded=0;entryX=0;entryY=0;entryDx=0;entryDy=5;" edge="1" target="84" parent="1" source="65">
                    <mxGeometry relative="1" as="geometry">
                        <mxPoint x="1135" y="775" as="sourcePoint"/>
                    </mxGeometry>
                </mxCell>
                <mxCell id="88" value="getEdges()" style="html=1;verticalAlign=bottom;endArrow=block;curved=0;rounded=0;entryX=0;entryY=0;entryDx=0;entryDy=5;" edge="1" target="87" parent="1" source="65">
                    <mxGeometry relative="1" as="geometry">
                        <mxPoint x="1015" y="755" as="sourcePoint"/>
                    </mxGeometry>
                </mxCell>
                <mxCell id="89" value="Edges = ArrayList&amp;lt;Edge&amp;gt;" style="html=1;verticalAlign=bottom;endArrow=open;dashed=1;endSize=8;curved=0;rounded=0;exitX=0;exitY=1;exitDx=0;exitDy=-5;" edge="1" source="87" parent="1" target="65">
                    <mxGeometry relative="1" as="geometry">
                        <mxPoint x="1015" y="825" as="targetPoint"/>
                    </mxGeometry>
                </mxCell>
                <mxCell id="90" value="loop" style="shape=umlFrame;whiteSpace=wrap;html=1;pointerEvents=0;" vertex="1" parent="1">
                    <mxGeometry x="750" y="800" width="520" height="100" as="geometry"/>
                </mxCell>
                <mxCell id="91" value="[foreach(e : Edges)]" style="text;html=1;align=center;verticalAlign=middle;resizable=0;points=[];autosize=1;strokeColor=none;fillColor=none;" vertex="1" parent="1">
                    <mxGeometry x="745" y="838" width="130" height="30" as="geometry"/>
                </mxCell>
                <mxCell id="94" value="" style="html=1;points=[[0,0,0,0,5],[0,1,0,0,-5],[1,0,0,0,5],[1,1,0,0,-5]];perimeter=orthogonalPerimeter;outlineConnect=0;targetShapes=umlLifeline;portConstraint=eastwest;newEdgeStyle={&quot;curved&quot;:0,&quot;rounded&quot;:0};" vertex="1" parent="1">
                    <mxGeometry x="885" y="980" width="10" height="30" as="geometry"/>
                </mxCell>
                <mxCell id="95" value="Collections.sort(baseGraph.Edges)" style="html=1;align=left;spacingLeft=2;endArrow=block;rounded=0;edgeStyle=orthogonalEdgeStyle;curved=0;rounded=0;" edge="1" target="94" parent="1">
                    <mxGeometry relative="1" as="geometry">
                        <mxPoint x="890" y="960" as="sourcePoint"/>
                        <Array as="points">
                            <mxPoint x="920" y="990"/>
                        </Array>
                    </mxGeometry>
                </mxCell>
                <mxCell id="98" value="e:&lt;u&gt;Edge&lt;/u&gt;" style="shape=umlLifeline;perimeter=lifelinePerimeter;whiteSpace=wrap;html=1;container=1;dropTarget=0;collapsible=0;recursiveResize=0;outlineConnect=0;portConstraint=eastwest;newEdgeStyle={&quot;curved&quot;:0,&quot;rounded&quot;:0};" vertex="1" parent="1">
                    <mxGeometry x="1160" y="1020" width="100" height="170" as="geometry"/>
                </mxCell>
                <mxCell id="101" value="" style="html=1;points=[[0,0,0,0,5],[0,1,0,0,-5],[1,0,0,0,5],[1,1,0,0,-5]];perimeter=orthogonalPerimeter;outlineConnect=0;targetShapes=umlLifeline;portConstraint=eastwest;newEdgeStyle={&quot;curved&quot;:0,&quot;rounded&quot;:0};" vertex="1" parent="98">
                    <mxGeometry x="45" y="60" width="10" height="40" as="geometry"/>
                </mxCell>
                <mxCell id="107" value="" style="html=1;points=[[0,0,0,0,5],[0,1,0,0,-5],[1,0,0,0,5],[1,1,0,0,-5]];perimeter=orthogonalPerimeter;outlineConnect=0;targetShapes=umlLifeline;portConstraint=eastwest;newEdgeStyle={&quot;curved&quot;:0,&quot;rounded&quot;:0};" vertex="1" parent="98">
                    <mxGeometry x="45" y="109" width="10" height="40" as="geometry"/>
                </mxCell>
                <mxCell id="109" value="return Vertex" style="html=1;verticalAlign=bottom;endArrow=open;dashed=1;endSize=8;curved=0;rounded=0;" edge="1" parent="98" target="92">
                    <mxGeometry relative="1" as="geometry">
                        <mxPoint x="-270" y="129" as="targetPoint"/>
                        <mxPoint x="39.5" y="129" as="sourcePoint"/>
                    </mxGeometry>
                </mxCell>
                <mxCell id="100" value="[foreach(e : basegraph.Edges)]" style="text;html=1;align=center;verticalAlign=middle;resizable=0;points=[];autosize=1;strokeColor=none;fillColor=none;" vertex="1" parent="1">
                    <mxGeometry x="1340" y="1030" width="190" height="30" as="geometry"/>
                </mxCell>
                <mxCell id="102" value="getVertexA()" style="html=1;verticalAlign=bottom;endArrow=block;curved=0;rounded=0;entryX=0;entryY=0;entryDx=0;entryDy=5;" edge="1" target="101" parent="1" source="92">
                    <mxGeometry relative="1" as="geometry">
                        <mxPoint x="1135" y="1075" as="sourcePoint"/>
                    </mxGeometry>
                </mxCell>
                <mxCell id="103" value="return Vertex" style="html=1;verticalAlign=bottom;endArrow=open;dashed=1;endSize=8;curved=0;rounded=0;" edge="1" source="101" parent="1" target="92">
                    <mxGeometry relative="1" as="geometry">
                        <mxPoint x="1135" y="1145" as="targetPoint"/>
                    </mxGeometry>
                </mxCell>
                <mxCell id="108" value="getVertexB()" style="html=1;verticalAlign=bottom;endArrow=block;curved=0;rounded=0;entryX=0;entryY=0;entryDx=0;entryDy=5;" edge="1" parent="1" target="107" source="92">
                    <mxGeometry relative="1" as="geometry">
                        <mxPoint x="890" y="1134" as="sourcePoint"/>
                    </mxGeometry>
                </mxCell>
                <mxCell id="111" value="" style="html=1;points=[[0,0,0,0,5],[0,1,0,0,-5],[1,0,0,0,5],[1,1,0,0,-5]];perimeter=orthogonalPerimeter;outlineConnect=0;targetShapes=umlLifeline;portConstraint=eastwest;newEdgeStyle={&quot;curved&quot;:0,&quot;rounded&quot;:0};" vertex="1" parent="1">
                    <mxGeometry x="885" y="1190" width="10" height="30" as="geometry"/>
                </mxCell>
                <mxCell id="112" value="unionfind(VertexA, VertexB, parents[])" style="html=1;align=left;spacingLeft=2;endArrow=block;rounded=0;edgeStyle=orthogonalEdgeStyle;curved=0;rounded=0;" edge="1" target="111" parent="1">
                    <mxGeometry relative="1" as="geometry">
                        <mxPoint x="890" y="1170" as="sourcePoint"/>
                        <Array as="points">
                            <mxPoint x="920" y="1200"/>
                        </Array>
                    </mxGeometry>
                </mxCell>
                <mxCell id="113" value="alt" style="shape=umlFrame;whiteSpace=wrap;html=1;pointerEvents=0;" vertex="1" parent="1">
                    <mxGeometry x="730" y="1225" width="760" height="555" as="geometry"/>
                </mxCell>
                <mxCell id="114" value="[unionfind == false]" style="text;html=1;align=center;verticalAlign=middle;resizable=0;points=[];autosize=1;strokeColor=none;fillColor=none;" vertex="1" parent="1">
                    <mxGeometry x="730" y="1250" width="120" height="30" as="geometry"/>
                </mxCell>
                <mxCell id="124" value="VertexA:&lt;u&gt;Vertex&lt;/u&gt;" style="shape=umlLifeline;perimeter=lifelinePerimeter;whiteSpace=wrap;html=1;container=1;dropTarget=0;collapsible=0;recursiveResize=0;outlineConnect=0;portConstraint=eastwest;newEdgeStyle={&quot;curved&quot;:0,&quot;rounded&quot;:0};" vertex="1" parent="1">
                    <mxGeometry x="1160" y="1230" width="100" height="90" as="geometry"/>
                </mxCell>
                <mxCell id="128" value="" style="html=1;points=[[0,0,0,0,5],[0,1,0,0,-5],[1,0,0,0,5],[1,1,0,0,-5]];perimeter=orthogonalPerimeter;outlineConnect=0;targetShapes=umlLifeline;portConstraint=eastwest;newEdgeStyle={&quot;curved&quot;:0,&quot;rounded&quot;:0};" vertex="1" parent="124">
                    <mxGeometry x="45" y="50" width="10" height="30" as="geometry"/>
                </mxCell>
                <mxCell id="129" value="getID()" style="html=1;verticalAlign=bottom;endArrow=block;curved=0;rounded=0;entryX=0;entryY=0;entryDx=0;entryDy=5;" edge="1" target="128" parent="1" source="92">
                    <mxGeometry x="-0.0005" relative="1" as="geometry">
                        <mxPoint x="1135" y="1285" as="sourcePoint"/>
                        <mxPoint as="offset"/>
                    </mxGeometry>
                </mxCell>
                <mxCell id="130" value="return ID" style="html=1;verticalAlign=bottom;endArrow=open;dashed=1;endSize=8;curved=0;rounded=0;exitX=0;exitY=1;exitDx=0;exitDy=-5;" edge="1" source="128" parent="1" target="92">
                    <mxGeometry relative="1" as="geometry">
                        <mxPoint x="1135" y="1355" as="targetPoint"/>
                    </mxGeometry>
                </mxCell>
                <mxCell id="131" value="VertexB:&lt;u&gt;Vertex&lt;/u&gt;" style="shape=umlLifeline;perimeter=lifelinePerimeter;whiteSpace=wrap;html=1;container=1;dropTarget=0;collapsible=0;recursiveResize=0;outlineConnect=0;portConstraint=eastwest;newEdgeStyle={&quot;curved&quot;:0,&quot;rounded&quot;:0};" vertex="1" parent="1">
                    <mxGeometry x="1160" y="1330" width="100" height="90" as="geometry"/>
                </mxCell>
                <mxCell id="132" value="" style="html=1;points=[[0,0,0,0,5],[0,1,0,0,-5],[1,0,0,0,5],[1,1,0,0,-5]];perimeter=orthogonalPerimeter;outlineConnect=0;targetShapes=umlLifeline;portConstraint=eastwest;newEdgeStyle={&quot;curved&quot;:0,&quot;rounded&quot;:0};" vertex="1" parent="131">
                    <mxGeometry x="45" y="50" width="10" height="30" as="geometry"/>
                </mxCell>
                <mxCell id="133" value="getID()" style="html=1;verticalAlign=bottom;endArrow=block;curved=0;rounded=0;" edge="1" parent="1" source="92" target="132">
                    <mxGeometry x="-0.0005" relative="1" as="geometry">
                        <mxPoint x="900" y="1295" as="sourcePoint"/>
                        <mxPoint x="1215" y="1295" as="targetPoint"/>
                        <mxPoint as="offset"/>
                    </mxGeometry>
                </mxCell>
                <mxCell id="134" value="return ID" style="html=1;verticalAlign=bottom;endArrow=open;dashed=1;endSize=8;curved=0;rounded=0;" edge="1" parent="1" source="132" target="92">
                    <mxGeometry relative="1" as="geometry">
                        <mxPoint x="900" y="1315" as="targetPoint"/>
                        <mxPoint x="1215" y="1315" as="sourcePoint"/>
                    </mxGeometry>
                </mxCell>
                <mxCell id="135" value="eF:&lt;u&gt;Edge&lt;/u&gt;" style="shape=umlLifeline;perimeter=lifelinePerimeter;whiteSpace=wrap;html=1;container=1;dropTarget=0;collapsible=0;recursiveResize=0;outlineConnect=0;portConstraint=eastwest;newEdgeStyle={&quot;curved&quot;:0,&quot;rounded&quot;:0};" vertex="1" parent="1">
                    <mxGeometry x="1141" y="1620" width="100" height="40" as="geometry"/>
                </mxCell>
                <mxCell id="137" value="" style="html=1;points=[[0,0,0,0,5],[0,1,0,0,-5],[1,0,0,0,5],[1,1,0,0,-5]];perimeter=orthogonalPerimeter;outlineConnect=0;targetShapes=umlLifeline;portConstraint=eastwest;newEdgeStyle={&quot;curved&quot;:0,&quot;rounded&quot;:0};" vertex="1" parent="1">
                    <mxGeometry x="1315" y="1440" width="10" height="30" as="geometry"/>
                </mxCell>
                <mxCell id="138" value="getVertexByID(VertexA.ID)" style="html=1;verticalAlign=bottom;endArrow=block;curved=0;rounded=0;entryX=0;entryY=0;entryDx=0;entryDy=5;" edge="1" target="137" parent="1" source="92">
                    <mxGeometry relative="1" as="geometry">
                        <mxPoint x="1245" y="1445" as="sourcePoint"/>
                    </mxGeometry>
                </mxCell>
                <mxCell id="139" value="return VertexAF" style="html=1;verticalAlign=bottom;endArrow=open;dashed=1;endSize=8;curved=0;rounded=0;exitX=0;exitY=1;exitDx=0;exitDy=-5;" edge="1" source="137" parent="1" target="92">
                    <mxGeometry relative="1" as="geometry">
                        <mxPoint x="1245" y="1515" as="targetPoint"/>
                    </mxGeometry>
                </mxCell>
                <mxCell id="140" value="" style="html=1;points=[[0,0,0,0,5],[0,1,0,0,-5],[1,0,0,0,5],[1,1,0,0,-5]];perimeter=orthogonalPerimeter;outlineConnect=0;targetShapes=umlLifeline;portConstraint=eastwest;newEdgeStyle={&quot;curved&quot;:0,&quot;rounded&quot;:0};" vertex="1" parent="1">
                    <mxGeometry x="1315" y="1487.5" width="10" height="30" as="geometry"/>
                </mxCell>
                <mxCell id="141" value="getVertexByID(VertexB.ID)" style="html=1;verticalAlign=bottom;endArrow=block;curved=0;rounded=0;entryX=0;entryY=0;entryDx=0;entryDy=5;" edge="1" target="140" parent="1" source="92">
                    <mxGeometry x="0.0003" relative="1" as="geometry">
                        <mxPoint x="1245" y="1505" as="sourcePoint"/>
                        <mxPoint as="offset"/>
                    </mxGeometry>
                </mxCell>
                <mxCell id="142" value="return" style="html=1;verticalAlign=bottom;endArrow=open;dashed=1;endSize=8;curved=0;rounded=0;exitX=0;exitY=1;exitDx=0;exitDy=-5;" edge="1" source="140" parent="1" target="92">
                    <mxGeometry relative="1" as="geometry">
                        <mxPoint x="1245" y="1575" as="targetPoint"/>
                    </mxGeometry>
                </mxCell>
            </root>
        </mxGraphModel>
    </diagram>
</mxfile>